<svg id="sdg_icon_11_ja_2" xmlns="http://www.w3.org/2000/svg" width="238" height="238" viewBox="0 0 238 238"><defs><style>.cls-1{fill:#f5a200;}.cls-2{fill:#fff;}</style></defs><rect class="cls-1" width="238" height="238"/><path class="cls-2" d="M18.81,23.45a39.77,39.77,0,0,1-4.63,2.24v6.44c.41-.19,1.41-.54,3-1.06,2-.71,3.18-1.18,3.59-1.4V66.08h8.68V20.7H22.64A15.49,15.49,0,0,1,18.81,23.45ZM39.73,66.08h8.69V20.7H41.64a15.78,15.78,0,0,1-3.84,2.75,39,39,0,0,1-4.62,2.24v6.44c.41-.19,1.4-.54,3-1.06a38.32,38.32,0,0,0,3.58-1.4ZM201,177.36H165.32a.85.85,0,0,0-.87.85v36a.86.86,0,0,0,.87.85H201a.86.86,0,0,0,.87-.85v-36A.85.85,0,0,0,201,177.36Zm-19.52,23.51a.86.86,0,0,1-.87.85H170a.86.86,0,0,1-.88-.85V194.4a.86.86,0,0,1,.88-.85H180.6a.85.85,0,0,1,.87.85Zm0-12a.86.86,0,0,1-.87.85H170a.86.86,0,0,1-.88-.85v-6.48a.86.86,0,0,1,.88-.84H180.6a.86.86,0,0,1,.87.84Zm16.29,12a.86.86,0,0,1-.88.85H186.23a.86.86,0,0,1-.87-.85V194.4a.85.85,0,0,1,.87-.85h10.65a.86.86,0,0,1,.88.85Zm0-12a.86.86,0,0,1-.88.85H186.23a.86.86,0,0,1-.87-.85v-6.48a.86.86,0,0,1,.87-.84h10.65a.86.86,0,0,1,.88.84ZM76.44,184.74h-36a.89.89,0,0,0-.89.88v28.2a.89.89,0,0,0,.89.89H52V197a.87.87,0,0,1,.88-.88H63.65a.88.88,0,0,1,.89.88v17.74h11.9a.88.88,0,0,0,.88-.89v-28.2A.88.88,0,0,0,76.44,184.74Zm.71-4.79L59.26,156.8l-.18-.19a.86.86,0,0,0-.65-.29.93.93,0,0,0-.58.23l-.1.13-.17.18L40.12,179.77l-.27.33a.91.91,0,0,0-.15.49.89.89,0,0,0,.89.89h36a.88.88,0,0,0,.88-.89.86.86,0,0,0-.23-.58Zm87.34-13.39v7.18a.71.71,0,0,0,.71.71h35.9a.71.71,0,0,0,.72-.71v-7.18a.72.72,0,0,0-.72-.72H165.2A.71.71,0,0,0,164.49,166.56Zm-46.41-72.8H83.17a.86.86,0,0,0-.85.86V213.9a.86.86,0,0,0,.85.86h34.91a.87.87,0,0,0,.86-.86V94.62A.87.87,0,0,0,118.08,93.76ZM97.31,201.17a.46.46,0,0,1-.45.46h-8a.46.46,0,0,1-.45-.46v-8.91a.45.45,0,0,1,.45-.45h8a.45.45,0,0,1,.45.45Zm0-20.46a.45.45,0,0,1-.45.46h-8a.45.45,0,0,1-.45-.46v-8.9a.45.45,0,0,1,.45-.46h8a.45.45,0,0,1,.45.46Zm0-20.45a.46.46,0,0,1-.45.46h-8a.46.46,0,0,1-.45-.46v-8.91a.46.46,0,0,1,.45-.46h8a.46.46,0,0,1,.45.46Zm0-20.45a.45.45,0,0,1-.45.45h-8a.45.45,0,0,1-.45-.45V130.9a.46.46,0,0,1,.45-.46h8a.46.46,0,0,1,.45.46Zm0-20.45a.45.45,0,0,1-.45.45h-8a.45.45,0,0,1-.45-.45v-8.91a.45.45,0,0,1,.45-.46h8a.45.45,0,0,1,.45.46ZM113,201.17a.47.47,0,0,1-.46.46h-8a.46.46,0,0,1-.46-.46v-8.91a.45.45,0,0,1,.46-.45h8a.46.46,0,0,1,.46.45Zm0-20.46a.46.46,0,0,1-.46.46h-8a.45.45,0,0,1-.46-.46v-8.9a.45.45,0,0,1,.46-.46h8a.46.46,0,0,1,.46.46Zm0-20.45a.47.47,0,0,1-.46.46h-8a.46.46,0,0,1-.46-.46v-8.91a.46.46,0,0,1,.46-.46h8a.47.47,0,0,1,.46.46Zm0-20.45a.46.46,0,0,1-.46.45h-8a.45.45,0,0,1-.46-.45V130.9a.46.46,0,0,1,.46-.46h8a.47.47,0,0,1,.46.46Zm0-20.45a.46.46,0,0,1-.46.45h-8a.45.45,0,0,1-.46-.45v-8.91a.45.45,0,0,1,.46-.46h8a.46.46,0,0,1,.46.46Zm46.37-3.74a1,1,0,0,0-.5.16l-.06,0-.3.37-34.3,43.52-.16.21a1,1,0,0,0-.3.68v53.47a.85.85,0,0,0,.86.85h34.87a.85.85,0,0,0,.85-.85V116.64a.82.82,0,0,0-.08-.35A.92.92,0,0,0,159.36,115.62Zm-13.57,24.3.25-.31c2.35-3,6.3-7.88,8.23-10.24l.25-.31a1,1,0,0,1,.77-.36,1,1,0,0,1,1,.8v11a1,1,0,0,1-.94,1h-8.75a1,1,0,0,1-1-1A1,1,0,0,1,145.79,139.92Zm-5.42,61a.85.85,0,0,1-.86.85h-10.4a.85.85,0,0,1-.85-.85v-6.52a.85.85,0,0,1,.85-.85h10.4a.85.85,0,0,1,.86.85Zm0-12a.85.85,0,0,1-.86.86h-10.4a.85.85,0,0,1-.85-.86v-6.51a.85.85,0,0,1,.85-.85h10.4a.85.85,0,0,1,.86.85Zm0-12a.85.85,0,0,1-.86.85h-10.4a.85.85,0,0,1-.85-.85v-6.51a.85.85,0,0,1,.85-.86h10.4a.85.85,0,0,1,.86.86Zm0-12a.86.86,0,0,1-.86.85h-10.4a.86.86,0,0,1-.86-.85V163a1,1,0,0,1,.07-.32l.05-.1a.83.83,0,0,1,.08-.12l.09-.14c1.33-1.9,7.33-9.29,9.85-12.38l.26-.31a1,1,0,0,1,.76-.36,1,1,0,0,1,1,.8Zm15.87,36.09a.86.86,0,0,1-.85.85H145a.85.85,0,0,1-.86-.85v-6.52a.85.85,0,0,1,.86-.85h10.4a.86.86,0,0,1,.85.85Zm0-12a.86.86,0,0,1-.85.86H145a.85.85,0,0,1-.86-.86v-6.51a.85.85,0,0,1,.86-.85h10.4a.86.86,0,0,1,.85.85Zm0-12a.86.86,0,0,1-.85.85H145a.85.85,0,0,1-.86-.85v-6.51a.85.85,0,0,1,.86-.86h10.4a.86.86,0,0,1,.85.86Zm0-12a.86.86,0,0,1-.85.85H145a.85.85,0,0,1-.86-.85v-6.51a.85.85,0,0,1,.86-.86h10.4a.86.86,0,0,1,.85.86Zm0-12a.86.86,0,0,1-.85.86H145a.85.85,0,0,1-.86-.86v-6.51a.85.85,0,0,1,.86-.85h10.4a.86.86,0,0,1,.85.85ZM128,37.11a18.78,18.78,0,0,1,1.54-4.53,18.11,18.11,0,0,1-1.26-1.6c-.34,1-.68,2-1,3A10.55,10.55,0,0,1,127,31.4a32,32,0,0,1,1-8.18.38.38,0,0,0,.3-.31c0-.13-.11-.17-.21-.22a3.81,3.81,0,0,0-.68-.2c-.52-.15-1.07-.29-1.58-.42A40,40,0,0,0,125,29.8a20.38,20.38,0,0,0,1.21,7.53C126.77,37.27,127.37,37.2,128,37.11Zm-11.68,11a14.76,14.76,0,0,0-1.67-2.6l-1.35.76A18.92,18.92,0,0,1,115,49Zm-1.67-22h-2.89v1.63h7.92V26.1h-3.11V24.66h3.83V22.89h-3.81V21.28a.38.38,0,0,0,.27-.33.26.26,0,0,0-.27-.24l-2-.16v2.34h-3.66v1.74h3.68Zm-8.68,3.36a4,4,0,0,1-.84.1l.21,1.73c.83-.11,1.68-.2,2.5-.26v7.86h1.76V30.83l.32-.06c0,.22.12.46.18.68l1.24-.54v1.43H113v-2h5.58v2h1.9V28.7h-9.17v1.95c-.27-1-.51-1.94-.81-2.88l-1.35.55c.15.32.22.68.34,1a12.63,12.63,0,0,1-1.49.12c1-1.14,1.82-2.39,2.74-3.6.17,0,.44,0,.44-.26a.34.34,0,0,0-.17-.28l-1.59-1.13c-.31.54-.61,1.09-.93,1.61-.32-.22-.66-.38-1-.58.86-1,1.64-2,2.43-3,.2,0,.52,0,.52-.32s-.23-.32-.37-.4l-1.82-1a22,22,0,0,1-2.87,4.89v.9a21.19,21.19,0,0,1,2.25,1c-.41.64-.8,1.3-1.26,1.91A.72.72,0,0,1,105.92,29.46Zm5,17.66a20.24,20.24,0,0,1,1.76,2.49l1.25-.8a15.41,15.41,0,0,0-1.69-2.47ZM131.33,28.7a27.67,27.67,0,0,0,3.15-.08c0,.82,0,1.63,0,2.44-.1,2.82-.58,4.9-2.75,6.64a21.21,21.21,0,0,1,1.91,1.08,7.36,7.36,0,0,0,2.55-4.27,15.89,15.89,0,0,0,.37-3.3c0-.89,0-1.78,0-2.67a17.9,17.9,0,0,0,3.08-.54c0-.75,0-1.52,0-2.27a12.74,12.74,0,0,1-3.12.73c0-1.34-.08-2.69-.08-4a.35.35,0,0,0,.24-.29c0-.16-.12-.22-.24-.24a2.71,2.71,0,0,0-.69-.13c-.56-.07-1.12-.14-1.67-.24.08.62.13,1.24.16,1.83,0,1.11.14,2.22.13,3.35-.66,0-1.31,0-2,0a19.35,19.35,0,0,1-2.26-.2c.06.71.1,1.43.18,2.14Zm13.57,6.05c.67-2.12,2.54-4.32,4.57-4.29a2.12,2.12,0,0,1,2.16,2.45,3.74,3.74,0,0,1-2.59,3.3,11.15,11.15,0,0,1-2.6.75s-.1,0-.1.07.92,1.44,1.09,1.75c.37-.08.72-.15,1.07-.25,2.7-.76,5.39-2.18,5.44-5.89a4,4,0,0,0-3.88-4.24A6.51,6.51,0,0,0,145,30.83a25.1,25.1,0,0,1,.68-4.95.41.41,0,0,0,.26-.33.24.24,0,0,0-.2-.24l-2-.62a40.62,40.62,0,0,0-.71,6.62,24.94,24.94,0,0,0,.17,3.11C143.73,34.51,144.32,34.64,144.9,34.75Zm-29.59-3.38L113.48,31c-.1,3.29-.52,5.27-3.12,6.9l1.52,1.24a7.28,7.28,0,0,0,2.92-4,13.79,13.79,0,0,0,.54-3.34.32.32,0,0,0,.2-.26A.25.25,0,0,0,115.31,31.37Zm62.21,3.56c1.64-2.09,3.16-4.61,5.8-4.61a2.94,2.94,0,0,1,3.06,3.24,3.21,3.21,0,0,1-2.24,3.13,5.6,5.6,0,0,0-.17-1.17,2.61,2.61,0,0,0-2.41-1.9A2.38,2.38,0,0,0,179,35.93c0,2.22,2.34,2.83,3.79,2.83,2.88,0,5.66-1.63,5.66-5.57a4.42,4.42,0,0,0-4.65-4.75,6.14,6.14,0,0,0-1.6.18c.8-1.16,1.58-2.34,2.42-3.49.35-.46.74-1,1.14-1.42.16-.16.35-.31.52-.46l-1.2-1.69c-.37.13-.73.27-1.1.36a29.48,29.48,0,0,1-3.2.59,16.4,16.4,0,0,1-2.33.21,5.15,5.15,0,0,1-.55,0l.38,2.5c1.4-.3,2.8-.57,4.19-.91a44.5,44.5,0,0,1-6.62,8.93Zm3.28,1c0-.42.21-.57.54-.57.65,0,.82.85.91,1.46C181.8,36.77,180.8,36.67,180.8,35.88ZM138.32,55.46s-.06.18-.11.18-.05-.11-.05-.15c0-.41,0-.82,0-1.22a28.7,28.7,0,0,1,.87-5.84.43.43,0,0,0,.22-.3.22.22,0,0,0-.15-.21c-.19-.07-.44-.07-.62-.12l-1.6-.27c-.27,2.19-.63,4.38-.71,6.58a13.58,13.58,0,0,0,.69,4.63l1.79.17A18.18,18.18,0,0,1,140.07,55l-1-1.46C138.82,54.19,138.57,54.81,138.32,55.46Zm1.11,8.13c0,.09,0,.09.1.11a9.5,9.5,0,0,1,1.83,1.11c3.12-1.77,3.94-5.34,4.07-9.18.08-2.41.1-4.86.12-7.25a.79.79,0,0,0,.2-.42.2.2,0,0,0-.16-.23,6,6,0,0,0-.85-.15,14,14,0,0,0-1.6-.23c.18,2.69.28,5.43.19,8.13s-.56,5.5-2.56,7.16a6.36,6.36,0,0,1-1.19.77C139.52,63.45,139.44,63.51,139.43,63.59Zm10.08-38.22c.52-.54,1-1.11,1.59-1.65a13,13,0,0,0-3.91-3.3c-.46.53-.89,1.08-1.35,1.6A17.57,17.57,0,0,1,149.51,25.37ZM117.74,35.88V31.74a.37.37,0,0,0,.23-.29c0-.16-.16-.2-.27-.22l-1.79-.2v5.65c0,1.57.81,2.27,2.06,2.27a6.29,6.29,0,0,0,3-.74l.13-2.2a4.63,4.63,0,0,1-2.37,1.11C117.86,37.12,117.74,36.86,117.74,35.88Zm11.33,28.24c.59-.55,1.17-1.15,1.76-1.7a34.37,34.37,0,0,0-4.52-4.87c-.73-.63-1.53-1.21-2.24-1.89a.74.74,0,0,1-.31-.59,1.25,1.25,0,0,1,.41-.79c.2-.24.46-.44.68-.66.48-.46.92-.95,1.39-1.41,1.14-1.09,2.3-2.14,3.42-3.22.19,0,.56,0,.56-.28,0-.07,0-.11-.08-.17a3.72,3.72,0,0,0-.57-.48c-.49-.42-1-.81-1.47-1.23-1.16,1.43-2.37,2.78-3.56,4.13-.79.89-1.64,1.71-2.46,2.58a2.29,2.29,0,0,0-.78,1.69,1.71,1.71,0,0,0,.32,1.07,4.1,4.1,0,0,0,.85.76A16.07,16.07,0,0,1,124,58.35,33,33,0,0,1,129.07,64.12ZM69.94,29.25v9.63h2v-13c.57-1.25,1.1-2.49,1.56-3.8.14,0,.46-.12.46-.34a.29.29,0,0,0-.18-.25l-2.25-1a21.89,21.89,0,0,1-4.16,9.07l1.29,1.51A9.43,9.43,0,0,0,69.94,29.25Zm7.43,29.43c0-.84-.06-1.7-.07-2.53,1.44-.11,2.86-.29,4.3-.51l.12-2.33a20,20,0,0,1-4.47.87c0-1,0-2,0-3,1.53-.06,3.09,0,4.65,0V49.1c-1.55,0-3.1.06-4.66.12,0-.63,0-1.24.06-1.87a.36.36,0,0,0,.24-.31c0-.14-.11-.18-.19-.21-.25-.06-.53-.06-.78-.11-.48-.07-1-.12-1.46-.18v.87c0,.66,0,1.29,0,1.92-2,.05-4.1.17-6.14.3.08.72.15,1.43.27,2.15a43,43,0,0,1,5.89-.47c0,1,0,2,.06,3a10.8,10.8,0,0,1-1.89.06c-.38,0-1.11,0-1.1-.67a4.5,4.5,0,0,1,.4-1.4l-1.87.09A4,4,0,0,0,70.24,54c0,2.1,1.86,2.23,3.2,2.25q.9,0,1.77,0c0,.63.06,1.28.05,1.94a8.13,8.13,0,0,0-1.21-.12,7.18,7.18,0,0,0-1.39,0,3.13,3.13,0,0,0-2.89,3c0,2.59,2.59,3.18,4.32,3.21a4.48,4.48,0,0,0,2.39-.79,3,3,0,0,0,1-2.7,20.69,20.69,0,0,1,4,2.37c.41-.65.81-1.32,1.2-2A20.2,20.2,0,0,0,77.37,58.68Zm-3.69,3.64c-.63,0-1.78-.29-1.76-1.25s1.23-1.21,1.85-1.2a3.82,3.82,0,0,1,1.55.33c0,.14,0,.3,0,.45A1.47,1.47,0,0,1,73.68,62.32Zm94.13-34.56a7.49,7.49,0,0,1,0,.82c-.12,1.82-.4,3.61-.4,5.43s.71,2.92,2.28,2.92A3.85,3.85,0,0,0,173,34.7c-.24-.94-.5-1.88-.77-2.82-.43,1-1.15,2.74-2.23,2.74-.51,0-.56-.65-.54-1.1v-.06a32,32,0,0,1,.3-3.27,29.29,29.29,0,0,0,.2-3.08c0-1.29-.64-2.39-1.82-2.39-1.78,0-3.14,1.16-4.46,2.41l0-.06c.3-.44.58-.86.89-1.25-.12-.51-.23-1-.35-1.57-.31.1-.61.24-.92.33,0-1,.07-2,.12-3a.24.24,0,0,0,.14-.23c0-.18-.11-.24-.23-.29a13.12,13.12,0,0,0-2.22-.24c.05,1.39.1,2.8.1,4.21a18.3,18.3,0,0,1-3.23.53c.16.67.26,1.36.38,2.06,1-.17,1.93-.43,2.91-.62v1a32.68,32.68,0,0,1-3.81,5.87c.52.62,1,1.27,1.54,1.84.78-1.27,1.6-2.51,2.37-3.81,0,2.16,0,4.34,0,6.48l2.14-.24c-.1-2.59-.13-5.25-.13-7.84.57-1,3-3.33,4-3.33C167.75,27,167.81,27.37,167.81,27.76Zm-9.34,27.75c-.29-1.47-.95-2.19-1.95-2.19a3,3,0,0,0-.94.15,13,13,0,0,0,1-2c1.51-.23,2.72-.43,3.63-.63l.18-2.26a24.46,24.46,0,0,1-3.07.76c.21-.7.36-1.23.44-1.57.18-.08.26-.19.26-.31a.25.25,0,0,0-.19-.25l-2.22-.53a17.54,17.54,0,0,1-.56,2.83,27.28,27.28,0,0,1-3.76.2c.1.63.2,1.35.26,2.13,1.06-.06,2-.15,2.9-.27a14.6,14.6,0,0,1-4.14,5.54c.61.76,1.07,1.31,1.36,1.68.23-.24.61-.73,1.21-1.45a14,14,0,0,1,1.27-1.39,2.32,2.32,0,0,1,1.69-.78c.48,0,.74.47.77,1.39a11.43,11.43,0,0,0-2.49,1.76,4.14,4.14,0,0,0-1.35,2.94q0,3.29,4.83,3.28a12.77,12.77,0,0,0,4.12-.59l.07-2.4a13.59,13.59,0,0,1-4.78.82c-1.5,0-2.25-.43-2.25-1.25s.66-1.78,2-2.43v1.15c0,.34,0,.65,0,.93l1.94,0V57.6c1.08-.54,3.36-1.5,4.55-1.93a.36.36,0,0,0,.24.1c.14,0,.2-.07.2-.24l-.75-2.29C161.28,54,159.79,54.77,158.47,55.51Zm-75-28.73v-1.9H73.26v1.9h4V30.5H73.78v1.77h3.51V36.6H72.93v1.76h11V36.6H79.34V32.27h3.58V30.5H79.34V26.78Zm18.37,25.73c0,.06.77,2.38.85,2.67a14.63,14.63,0,0,0,2.25-.79c2-.86,3.86-2,6-2s3.44.9,3.44,3.59-1.86,4.06-3.81,4.78a19.46,19.46,0,0,1-4,.93c.54.62,1,1.31,1.56,2,2.21-.37,4.92-1.09,6.68-2.82a6.76,6.76,0,0,0,1.87-5.09c0-3.55-2.31-5.59-5.1-5.59a15.91,15.91,0,0,0-5.11,1.1,14.12,14.12,0,0,1-4.29,1.09C102.05,52.37,101.83,52.3,101.83,52.51Zm-22-29.26a16.43,16.43,0,0,0-1.42-1.35c-.54-.49-1.1-1-1.68-1.43l-1.4,1.72a20,20,0,0,1,3.24,2.59Zm27.71,9.89a.31.31,0,0,0,.23-.3c0-.08,0-.18-.11-.2l-1.69-.71a21.74,21.74,0,0,1-1.11,5.17l1.5.81A21.76,21.76,0,0,0,107.49,33.14Zm-18.33,3.5c1.78,0,2.73-1.66,3.48-3.29a21.78,21.78,0,0,0,.84-2,12.66,12.66,0,0,1,3.26,1.19,8.54,8.54,0,0,1-3.56,4.73L95,38.4c1.53-.9,2.92-3.17,3.6-5a25.71,25.71,0,0,1,2.37,1.7c.35-.76.68-1.53,1-2.29a21.78,21.78,0,0,0-2.65-1.49,22,22,0,0,0,.65-3.55c-.67-.51-1.36-1-2.06-1.43a17.93,17.93,0,0,1-.58,4.08,13.63,13.63,0,0,0-3.27-1c.33-.92.61-1.85.91-2.79.38-1.25.79-2.48,1.15-3.72a12.64,12.64,0,0,1-.85-.94,25.06,25.06,0,0,1-5.89.74h-.19l.4,2.34,3.72-.63A30.42,30.42,0,0,1,92,29.25a7.75,7.75,0,0,0-2.14.18,4.3,4.3,0,0,0-3.23,4.15C86.66,35.27,87.7,36.64,89.16,36.64Zm2.29-5.57a10.9,10.9,0,0,1-1.41,3,.93.93,0,0,1-.74.37c-.47,0-.66-.45-.66-1C88.64,31.76,90.23,31.17,91.45,31.07Zm-3.8,21.3c.68,0,1.34,0,2-.07a16.7,16.7,0,0,1-2.34,7l1.94,1a7.56,7.56,0,0,1,1.82-2.62,5.27,5.27,0,0,1,3.08-1.24,2.06,2.06,0,0,1,2.28,2.1c0,3-3.56,3.66-5.52,3.84.4.63.7,1.33,1.07,2a9.83,9.83,0,0,0,5-2,4.85,4.85,0,0,0,1.63-3.66,3.76,3.76,0,0,0-3.9-4.12,6.62,6.62,0,0,0-3.8,1.1,25,25,0,0,0,.82-3.59,48.59,48.59,0,0,0,5.62-.75l0-2.39a26.49,26.49,0,0,1-5.33,1.06c.12-.88.17-1.78.24-2.68a.51.51,0,0,0,.32-.4c0-.19-.14-.25-.26-.29a4.27,4.27,0,0,0-.7-.12c-.53-.09-1.05-.15-1.57-.23a35.62,35.62,0,0,1-.2,3.88c-.42,0-.84,0-1.25,0a21.72,21.72,0,0,1-2.56-.16c0,.75.11,1.49.16,2.25Zm23.51-20.23-1.31.56c.19,1.12.41,2.25.66,3.35l1.34-.54C111.58,34.4,111.35,33.26,111.16,32.14Z"/></svg>