<svg id="sdg_icon_08_ja_2" xmlns="http://www.w3.org/2000/svg" width="238" height="238" viewBox="0 0 238 238"><defs><style>.cls-1{fill:#970b31;}.cls-2{fill:#fff;}</style></defs><rect class="cls-1" width="238" height="238"/><path class="cls-2" d="M37.63,42.22a10.22,10.22,0,0,0,3.3-4,14.8,14.8,0,0,0,1.23-6.39c0-3.66-1-6.51-2.91-8.57s-4.76-3.08-8.46-3.08-6.54,1-8.51,3.11-3,5-3,8.71a13.58,13.58,0,0,0,1.28,6.19A11.12,11.12,0,0,0,24,42.22a8.66,8.66,0,0,0-4,4.14A15.08,15.08,0,0,0,18.63,53q0,13.78,12.16,13.78,6.33,0,9.25-3.52C42,60.87,43,57.59,43,53.36a16.29,16.29,0,0,0-1.35-6.89A8.63,8.63,0,0,0,37.63,42.22Zm-9.3-14.15a2.7,2.7,0,0,1,2.46-1.43,2.58,2.58,0,0,1,2.41,1.43A8.15,8.15,0,0,1,34,32q0,7-3.2,7t-3.3-7A7.67,7.67,0,0,1,28.33,28.07Zm5.4,30.25a2.87,2.87,0,0,1-2.94,2,2.87,2.87,0,0,1-2.94-2,14.28,14.28,0,0,1-.76-5,15.34,15.34,0,0,1,.76-5.3,2.87,2.87,0,0,1,2.94-2,2.87,2.87,0,0,1,2.94,2,15,15,0,0,1,.76,5.32A14,14,0,0,1,33.73,58.32Zm95.77,92.94-11.76,11.85a.56.56,0,0,1-.76,0l-10.65-10.85c-2-1.95-2.37-.37-2.37.39v55.84a1.38,1.38,0,0,0,1.38,1.38h25.11a1.38,1.38,0,0,0,1.38-1.38V151.7C131.83,150.93,131.22,149.53,129.5,151.26Zm45.71-62.74a.8.8,0,0,0-.45-.2h-.34l-18.6,4.2-.34,0a.63.63,0,0,0-.36.19.7.7,0,0,0,0,1l.21.21,4.25,4.25-42.17,42.16L97.94,120.92a.55.55,0,0,0-.8,0l-5.28,5.28h0L60.64,157.42a.56.56,0,0,0,0,.79l5.29,5.29a.54.54,0,0,0,.78,0l30.83-30.82,14.14,14.13a.16.16,0,0,0,0,.07l5.29,5.28a.56.56,0,0,0,.79,0l47.85-47.85,4.47,4.46a.71.71,0,0,0,1,0,.73.73,0,0,0,.2-.46v-.06l4.08-19v-.2A.68.68,0,0,0,175.21,88.52ZM94.36,147.2,70.05,170.32a4,4,0,0,0-1.38,3.46v34.68a1.38,1.38,0,0,0,1.38,1.38H95.16a1.38,1.38,0,0,0,1.38-1.38V147.78C96.54,147,95.94,145.62,94.36,147.2Zm70-30.12L140.06,140.2a4,4,0,0,0-1.38,3.47v64.79a1.39,1.39,0,0,0,1.38,1.39h25.11a1.39,1.39,0,0,0,1.38-1.39V117.67C166.55,116.9,166,115.5,164.37,117.08Zm-51.58-90.3c.81.88,2.52,3.25,2.52,4.55,0,.78-1.28,1.09-1.78,1.19.41.55.83,1.1,1.22,1.69,1-.34,2.78-.91,2.78-2.45,0-1.83-1.74-4.75-2.78-6.08A20.9,20.9,0,0,1,112.79,26.78Zm3.86-3a17.87,17.87,0,0,0-1.31-2.88L114,21.6a21,21,0,0,1,1.31,2.89Zm.66,23.76c0-.18-.16-.28-.29-.35l-2-.83a24.62,24.62,0,0,1-1,3l1.6.56c.44-.66.84-1.36,1.26-2.06C117,47.82,117.31,47.71,117.31,47.5Zm26.1,11.69c0,.49-.09,1-.09,1.47,0,3.29,2.41,4.33,4.86,4.31a3.93,3.93,0,0,0,4.14-4.14,9.62,9.62,0,0,0-2.94-6.64,16.11,16.11,0,0,1-1.91.94c1.13,1.28,2.54,3.17,2.56,5.13,0,1.69-.65,2.59-2.13,2.61a2.27,2.27,0,0,1-2.53-2.39,5.43,5.43,0,0,1,0-.9,14.29,14.29,0,0,0,2.06.16l.31-2c-.69-.07-1.41-.07-2.11-.19.26-1.53.61-3.06.94-4.57.23-1,.44-1.92.65-2.88.11-.45.21-.94.33-1.39a.83.83,0,0,0,.34-.53c0-.16-.13-.23-.25-.26a3.46,3.46,0,0,0-.7-.19c-.56-.15-1.14-.31-1.69-.41a26.35,26.35,0,0,1-.56,4.08,26.63,26.63,0,0,0-2.6-2.24c-.42.61-.83,1.22-1.21,1.84a31.46,31.46,0,0,1,2.79,2.41l.91-1.17c-.28,1.61-.59,3.21-.87,4.82-.47-.12-1.47-.43-1.48-1.14a3.86,3.86,0,0,1,.85-1.8c-.65-.15-1.31-.35-2-.49a7.43,7.43,0,0,0-.77,2.61C140.42,58.17,142.14,58.75,143.41,59.19ZM114.29,24.46a21.68,21.68,0,0,0-1.24-2.82l-1.41.67a23.29,23.29,0,0,1,1.33,2.9Zm22.25,9.08a22.25,22.25,0,0,0-2.95-8.69c-.73.32-1.41.72-2.13,1a18.59,18.59,0,0,1,2.82,8.67C135,34.25,135.79,33.91,136.54,33.54Zm5.05-5.47a7.58,7.58,0,0,0-.77,2.61c0,1.9,1.75,2.47,3,2.92,0,.49-.09,1-.09,1.47,0,3.29,2.41,4.33,4.85,4.31a3.93,3.93,0,0,0,4.14-4.14,9.61,9.61,0,0,0-2.93-6.64,14.84,14.84,0,0,1-1.92.94c1.13,1.29,2.55,3.16,2.56,5.12,0,1.7-.64,2.6-2.13,2.62a2.28,2.28,0,0,1-2.53-2.39,5.43,5.43,0,0,1,0-.9,14.43,14.43,0,0,0,2.06.17l.32-2c-.7-.06-1.42-.06-2.11-.18.26-1.53.61-3.06.94-4.57.22-1,.43-1.92.65-2.89.1-.44.2-.93.33-1.38a.82.82,0,0,0,.33-.53c0-.16-.12-.23-.25-.27a4.39,4.39,0,0,0-.69-.18c-.56-.14-1.14-.31-1.7-.41a26.35,26.35,0,0,1-.56,4.08,24.47,24.47,0,0,0-2.6-2.24c-.42.61-.82,1.22-1.21,1.83a31.93,31.93,0,0,1,2.8,2.42c.3-.39.59-.78.91-1.17-.28,1.61-.6,3.21-.87,4.82-.48-.12-1.47-.43-1.49-1.14a4,4,0,0,1,.85-1.8C142.92,28.41,142.25,28.21,141.59,28.07ZM124.81,62.39c-.82.18-1.65.28-2.47.41l.89,2.1a.24.24,0,0,0,.18.14c.15,0,.27-.18.32-.32,1.86-.5,3.73-1,5.58-1.46l.23-1.93-2.81.72V57.43h6.18A40.4,40.4,0,0,1,128.48,59a13.29,13.29,0,0,0,7.09,6l1.3-1.93c-1.71-.44-4.57-1.6-5.62-3.37,1.09-.18,2.19-.4,3.26-.66a.7.7,0,0,0,.34.12.26.26,0,0,0,.26-.28l-.94-1.45h2.36V55.66h-9.79v-1h7.62V53.06h-7.62V52h7.62V50.39h-7.62V49.31h8.72V47.5H124.81v8.11h-2.87v1.92h2.87ZM118,50h-5.59c0-.4,0-.81,0-1.21s0-1,0-1.47a.58.58,0,0,0,.33-.44c0-.21-.24-.27-.37-.29l-2.28-.29c0,1.22.07,2.47.17,3.7H104c0,1.87.15,3.76.15,5.64,0,2.81-.13,6.26-1.93,8.34l1.65,1.18c1.77-2.18,2.23-6.22,2.23-9.15h2.17l0,1.41c0,2.38-.32,3.21-2.43,3.46l1,1.64c2.13-.21,2.93-1,3.27-3.55.19-1.55.19-3.12.23-4.69h-4.13c0-.76,0-1.51,0-2.28v-.11h4.24a22.64,22.64,0,0,0,2.06,7.66,10.61,10.61,0,0,1-4.61,4.22l1.43,1.37a11.12,11.12,0,0,0,4.25-3.7,13.79,13.79,0,0,0,3.86,3.83l1.47-2a12.09,12.09,0,0,1-4.07-3.62,24.89,24.89,0,0,0,1.9-4.62c.14,0,.49-.1.49-.33a.51.51,0,0,0-.21-.38l-2.18-1.37a19.76,19.76,0,0,1-1.22,4.48,21.76,21.76,0,0,1-1.07-5.45H118Zm7.19-12.31a1.9,1.9,0,0,0,1.39.53c1.38-.09,2.73-2.46,3.19-3.85l-1.21-2.55c-.32.84-1.25,3.59-2.09,3.64-.43,0-.74-.88-.87-1.27a10.2,10.2,0,0,1-.55-2.7A22.55,22.55,0,0,1,125,28.9a21.8,21.8,0,0,1,.5-4.15.43.43,0,0,0,.34-.41.25.25,0,0,0-.14-.22,13.62,13.62,0,0,0-2.51-.8c-.09.7-.14,1.4-.19,2.12a32.84,32.84,0,0,0-.12,5.61C123,33.3,123.63,36.2,125.21,37.69ZM86.33,57A30.77,30.77,0,0,1,84,63.85a22.42,22.42,0,0,0,2.09,1.34.18.18,0,0,0,.17-.18.68.68,0,0,0-.08-.31c.65-2,1.22-4.1,1.79-6.18Zm-9.16-3.13a14,14,0,0,0,2.58-4.3V48H71.69v1.78h1.66l-1.13,1.16a17.63,17.63,0,0,0,2.31,3,11.73,11.73,0,0,1-3,2c-.18-.68-.38-1.35-.6-2-.46.21-.93.41-1.39.59.13.33.24.7.34,1.05l-1.73.2c1-1.2,2-2.45,2.95-3.67.14,0,.4,0,.4-.23S70,50.56,69.7,50.39a16.88,16.88,0,0,1-.94,1.66l-1.05-.64c1-1,1.9-2,2.81-3.1.12,0,.41-.06.41-.27s-.24-.34-.38-.43a16.92,16.92,0,0,0-1.79-.93,22.47,22.47,0,0,1-3.18,4.89v.91a10.36,10.36,0,0,1,2.37.91,27.67,27.67,0,0,1-1.63,2.33,3.92,3.92,0,0,1-1,.1l.19,1.78c.86-.1,1.7-.24,2.56-.35v8h1.77v-8.2l.45-.08c.08.34.19.71.27,1.06a11.87,11.87,0,0,0,1.36-.59l-.2-.9.72,1.08a12,12,0,0,0,3.4-2.39A13.7,13.7,0,0,0,80.46,58c.36-.64.7-1.29,1.1-1.9A13,13,0,0,1,77.17,53.84Zm-1.42-1.32a12,12,0,0,1-1.83-2.74h3.41A10.27,10.27,0,0,1,75.75,52.52Zm-4.3,5.69L70,58.8c.26,1.25.52,2.52.89,3.72l1.43-.65A26.35,26.35,0,0,1,71.45,58.21Zm9.32,4.94H76.86V60.73h3V59h-3V57.5a.4.4,0,0,0,.28-.33A.21.21,0,0,0,77,57a2.73,2.73,0,0,0-.62-.09l-1.41-.16V59h-2.7v1.7H75v2.42H71.27v1.7h9.5ZM66.55,30.72v9.19h1.86V26.8c0-.1.21-.71.25-.85.23-.8.42-1.62.63-2.41l.49.9c.58-.06,1.15-.11,1.73-.15v.84h-2.4v1.61h2.4v.68H69.16v5.93h2.37v.7H69.11v1.51h2.42v1c-1,.12-1.87.27-2.82.37l.74,1.8c0,.14.15.28.29.28s.25-.14.26-.3c1.53-.35,3-.66,4.56-1a10.47,10.47,0,0,1-.94,1.06L75.23,40a11.46,11.46,0,0,0,2.55-5,32.84,32.84,0,0,0,.8-7h.58c0,2.57,0,5.16-.19,7.71-.14,1.82-.7,2.21-2.17,2.5L78,39.87c2.1-.55,2.8-1.59,2.94-4,.19-3.23.17-6.45.19-9.68-.78,0-1.57,0-2.36,0,.06-1.29.11-2.59.14-3.88a.39.39,0,0,0,.25-.34c0-.19-.21-.27-.33-.29l-2-.27v4.76h-.89v-1H73.31v-1c.75-.12,1.52-.23,2.27-.39a.48.48,0,0,0,.31.12c.13,0,.25-.06.25-.22l-1.31-2a19.41,19.41,0,0,1-5.33,1.14l.07-.3c.1,0,.33-.11.33-.27a.32.32,0,0,0-.18-.25l-2.06-.75c-.42,2.76-1.39,6.8-3,9l1.14,1.69A12.44,12.44,0,0,0,66.55,30.72Zm5,1.37H70.7v-1h.88Zm1.68-5.35h2.6V28h.89c-.06,2.86-.21,6.22-1.52,8.71l.1-.69c-.7.12-1.37.26-2.07.37v-.84h2.25V34.05H73.26v-.7h2.28V27.42H73.26Zm-.06,1.94H74v1.1H73.2Zm0,2.41H74v1H73.2Zm-1.62-1.31H70.7v-1.1h.88Zm-5.4,28.37a16.77,16.77,0,0,1-1.3,5.12l1.46.76a17.94,17.94,0,0,0,1.42-4.78c.08,0,.19-.12.19-.22a.26.26,0,0,0-.19-.28Zm22.1-9.08A16.51,16.51,0,0,0,86,46.9l-1.34,2a23.52,23.52,0,0,1,2.52,1.78Zm-.45,5a15.21,15.21,0,0,0-2.71-2.33l-1.24,2a29.17,29.17,0,0,1,2.92,2Zm-1.5-23.06a42.48,42.48,0,0,0,6.36-.77c.33.79.7,1.57,1,2.34a13.1,13.1,0,0,0-2.8-.37c-1.79,0-4.28.86-4.28,3.42,0,3.51,3.92,3.79,6.14,3.79a15.84,15.84,0,0,0,2.56-.24c.15-.78.29-1.55.46-2.33a19.93,19.93,0,0,1-3.62.47c-1.1,0-3.51-.12-3.51-1.92C88.69,34.32,90.27,34,91,34A9.51,9.51,0,0,1,95.7,35.2c.42-.56.84-1.11,1.22-1.7a14.51,14.51,0,0,1-2.27-3.64,22.77,22.77,0,0,0,3.79-1.12c-.14-.75-.23-1.53-.38-2.3A24.08,24.08,0,0,1,94,28c-.25-.64-.48-1.27-.67-1.92.83-.27,1.65-.55,2.45-.86-.14-.77-.31-1.53-.45-2.29a10.05,10.05,0,0,1-2.43,1.17c-.14-.68-.25-1.35-.34-2a.5.5,0,0,0,.18-.33.26.26,0,0,0-.28-.25h-.07c-.72,0-1.43.13-2.15.19.18,1,.38,2,.65,3a25.39,25.39,0,0,1-4.47.55c.17.65.34,1.33.54,2a27.64,27.64,0,0,0,4.43-.63c.18.61.37,1.22.58,1.84a27.52,27.52,0,0,1-6.06.61ZM97.64,50.76h1.84V49H94.69V47.47c.14,0,.35-.14.35-.34a.35.35,0,0,0-.33-.33l-2.16-.14V49H88.48v1.78H90a14.48,14.48,0,0,0,2.29,2.94,13.38,13.38,0,0,1-4.9,1.92l1,1.69a11.53,11.53,0,0,0,1.79-.63c0,2.86-.36,5.86-2.48,7.65l1.5,1.15a8.28,8.28,0,0,0,2.28-3.74h4.34v3.41h1.89V56.84a17.74,17.74,0,0,0,1.74.58l1-2.07a13.68,13.68,0,0,1-5-1.63A12.6,12.6,0,0,0,97.64,50.76Zm-5.47,0h3.11a6.93,6.93,0,0,1-1.48,1.88A7.42,7.42,0,0,1,92.17,50.74Zm3.61,9.41h-4c.06-.47.11-1,.15-1.43h3.82Zm0-4v1H92c0-.45,0-.88,0-1.33a17,17,0,0,0,1.7-1A23.57,23.57,0,0,0,95.78,56.15Zm8.29-17.38c1.56-2.46,3-7.19,3.74-10.15a4.77,4.77,0,0,1,1-.16c1,0,1,1.49,1,2.32,0,1.17,0,5.76-1.4,5.76a3.64,3.64,0,0,1-1.92-.57c.09.77.14,1.53.21,2.3a3.87,3.87,0,0,0,1.71.43,2.59,2.59,0,0,0,2-.63c1.26-1.28,1.52-4.8,1.52-6.65a11.13,11.13,0,0,0-.35-3.11,2.05,2.05,0,0,0-2.3-1.73,9.32,9.32,0,0,0-1,.1c.28-1.14.51-2.31.72-3.45.08,0,.21-.1.21-.23s-.14-.2-.23-.24a6.75,6.75,0,0,0-.72-.24c-.5-.17-1-.33-1.53-.46a35.68,35.68,0,0,1-.63,4.86,13.28,13.28,0,0,1-2.71.37c-.16,0-.3,0-.46,0s-.17,0-.17.12.46,2,.51,2.19c.78-.23,1.59-.43,2.39-.59a28.52,28.52,0,0,1-3.53,8.69C102.76,38,103.39,38.4,104.07,38.77Z"/></svg>