<svg id="sdg_icon_10_ja_3" xmlns="http://www.w3.org/2000/svg" width="238" height="238" viewBox="0 0 238 238"><defs><style>.cls-1{fill:#dc007a;}.cls-2{fill:#fff;}</style></defs><rect class="cls-1" width="238" height="238"/><path class="cls-2" d="M58.16,33.42q0-6.23-3-9.78t-9.08-3.56q-6.11,0-9.13,3.56t-3,9.78V53.76q0,6,3.1,9.55t9.05,3.56c3.89,0,6.87-1.2,9-3.59s3.13-5.56,3.13-9.52ZM49.37,53.59q0,5.65-3.31,5.66T42.7,53.59v-20a12.27,12.27,0,0,1,.62-4.23,2.6,2.6,0,0,1,2.74-1.66,2.56,2.56,0,0,1,2.66,1.69,11.8,11.8,0,0,1,.65,4.2ZM18.81,23.45a39.77,39.77,0,0,1-4.63,2.24v6.44c.42-.19,1.41-.54,3-1.06,2-.71,3.18-1.18,3.59-1.4V66.08h8.68V20.7H22.64A15.49,15.49,0,0,1,18.81,23.45Zm122.27,104.7H97.25a.5.5,0,0,0-.47.53v13.17a.51.51,0,0,0,.47.54h43.83a.52.52,0,0,0,.49-.54V128.68A.51.51,0,0,0,141.08,128.15Zm0,28H97.25a.51.51,0,0,0-.47.54v13.17a.5.5,0,0,0,.47.53h43.83a.51.51,0,0,0,.49-.53V156.71A.52.52,0,0,0,141.08,156.17ZM78.12,128l-21,21a.37.37,0,0,0,0,.52l21,21a.37.37,0,0,0,.62-.26V128.24A.36.36,0,0,0,78.12,128Zm20-19.13h42.08a.36.36,0,0,0,.26-.62l-21-21a.37.37,0,0,0-.52,0l-21,21A.37.37,0,0,0,98.13,108.85Zm42.08,80.86H98.13a.37.37,0,0,0-.26.62l21,21a.37.37,0,0,0,.52,0l21-21A.36.36,0,0,0,140.21,189.71Zm20-61.73a.36.36,0,0,0-.62.26v42.08a.37.37,0,0,0,.62.26l21-21a.37.37,0,0,0,0-.52Zm-41-74.12c.5-.46,1-1,1.46-1.42,1.2-1.1,2.41-2.15,3.59-3.23.19,0,.58,0,.58-.28a.27.27,0,0,0-.08-.18,3,3,0,0,0-.57-.5c-.49-.44-1-.86-1.49-1.3-1.22,1.44-2.49,2.8-3.74,4.16-.85.9-1.74,1.72-2.6,2.6a2.31,2.31,0,0,0-.84,1.72,1.83,1.83,0,0,0,.3,1.11,4.3,4.3,0,0,0,.86.79,15.78,15.78,0,0,1,1.49,1.36,33.84,33.84,0,0,1,5.13,6.06c.62-.56,1.23-1.16,1.86-1.71a35.87,35.87,0,0,0-4.54-5.11c-.74-.67-1.54-1.28-2.26-2a.79.79,0,0,1-.31-.62,1.41,1.41,0,0,1,.44-.81A8.8,8.8,0,0,1,119.18,53.86Zm52.88-30.15-1.87,1c.73,1.36,1.36,2.83,2,4.28l1.54-.9A25.08,25.08,0,0,0,172.06,23.71Zm5.08-.69h5.75v-2H169.33v2H175V29.8H168.4v2H175v6.69h2.12V31.8h6.62v-2h-6.64ZM100.71,61.5a3.11,3.11,0,0,0,2.06,2.9,5.17,5.17,0,0,0,1.65.26c1.58,0,2.94-.57,3-2.68,0-.22,0-.44,0-.67a15.34,15.34,0,0,1,2.32,2.1c.48-.63.92-1.32,1.35-2A12.66,12.66,0,0,0,107.41,59c0-1.08-.07-2.14,0-3.22a2.45,2.45,0,0,1,.36-1.24.24.24,0,0,0,0-.09c0-.24-.5-.16-.61-.16h-1.57a3.93,3.93,0,0,0-.26,1.39c0,1,0,1.92,0,2.88a7.67,7.67,0,0,0-1.43-.12A3,3,0,0,0,100.71,61.5Zm4.71-1c0,.43,0,.86,0,1.28,0,.88-.51,1-1.15,1s-1.69-.42-1.65-1.37.86-1.16,1.53-1.16A2.93,2.93,0,0,1,105.42,60.48Zm.42-9.18a10.65,10.65,0,0,1,4.25,2.35l1.12-2a10.81,10.81,0,0,0-4.36-2.35ZM202,30.63V28.9h-6.78V27.67h5.12V25.94h-5.09V24.88c.4-.48.87-1.09,1.09-1.43h1.13l-.07,1.65,1.52.16.56-1.75h2.29V21.79h-4.63c.14-.28.28-.57.4-.88.12,0,.35,0,.35-.22a.26.26,0,0,0-.2-.22l-2.07-.62a13.8,13.8,0,0,1-1.52,3.43V21.73H190.7a4.17,4.17,0,0,0,.37-.73.38.38,0,0,0,.33-.33c0-.14-.13-.22-.23-.27l-2-.65a11.56,11.56,0,0,1-2.58,5.09l1.52,1A15.1,15.1,0,0,0,190,23.39h.49l.56,1.83,1.43-.38-.2-1.41H194a12.45,12.45,0,0,1-.78,1.12v1.39h-4.58v1.73h4.63V28.9h-6.43v1.71h9.36v1.25h-8.84v1.82h3.26L189.44,35a37.84,37.84,0,0,1,2.95,2.86l1.32-1.47c-.35-.43-.74-.78-1.11-1.17s-1-1-1.5-1.52h5.1v1.67c0,1.69-.87,1.79-2.08,2l1.19,1.73c3.18-.54,2.87-2.3,2.87-5.42h3.42V31.86h-3.44l0-1.23Zm-22-7c-.46,1.59-1,3.17-1.56,4.7l1.56.73c.69-1.24,1.31-2.53,1.92-3.82.14,0,.42-.08.42-.3a.39.39,0,0,0-.25-.35Zm-54.8,9.21h-3.71V29.83h1.73c-.21.75-.43,1.5-.65,2.23l1.45.54c.27-.7.57-1.39.87-2.08.14,0,.35-.08.35-.27a.18.18,0,0,0-.08-.15l-.89-.52V28.14H121.5V26h3.65V24.31h-8.8v1.75h3.21v2.11h-2.67v1.66h2.67v3h-3.38v1.75h9Zm2.72-12.31H113.54v17.6h14.37ZM125.85,36.3H115.56V22.53h10.29Zm14-14.27c-3.89,0-7.21,3.44-7.21,8.32a7.34,7.34,0,0,0,1,4.08,2,2,0,0,0,3.27.51c2.56-2,3.43-7.5,3.87-10.93,2.14.51,3.42,2.84,3.42,5.4,0,3.78-2.39,4.88-5,5.63.51.56,1,1.18,1.47,1.76a7.2,7.2,0,0,0,5.62-7.53C146.38,24.64,143.46,22,139.86,22Zm-3.45,10.61c-.2.26-.47.63-.8.63-.91,0-1.06-2.11-1.06-2.92a8.32,8.32,0,0,1,.45-2.73A6,6,0,0,1,138.76,24C138.6,26.65,138,30.73,136.41,32.64Zm19.82,14.89a19.66,19.66,0,0,0-5.17-1.94c-.34.77-.66,1.53-1,2.3a25.94,25.94,0,0,1,5.05,1.91C155.52,49.06,155.87,48.29,156.23,47.53ZM98.52,61.11a41.3,41.3,0,0,0,3.81-9.57c.86-.16,1.7-.37,2.55-.61,0-.74,0-1.47,0-2.19a18.46,18.46,0,0,1-2.1.7c.28-.94.49-1.9.7-2.84-.81-.18-1.61-.28-2.44-.41a21.72,21.72,0,0,1-.47,3.53,15.19,15.19,0,0,1-2.43.17,7.63,7.63,0,0,1-1,0c.09.73.19,1.45.28,2.16a18.88,18.88,0,0,0,2.61-.22A33.21,33.21,0,0,1,96.6,60C97.23,60.4,97.87,60.79,98.52,61.11Zm56-9.66a12.35,12.35,0,0,0-4.22.78,11.74,11.74,0,0,1-2.24.46c-.07,0-.25,0-.26.11s.7,2.39.8,2.71c1.1-.64,4-2,5.19-1.89,1.65.11,2.19,1.21,2.07,3.06a8.71,8.71,0,0,1-.73,3.23c-1,1.93-3.36,3.09-5.14,3.63.7.55,1.36,1.18,2,1.78a9.31,9.31,0,0,0,6.26-8.24C158.44,54,157.35,51.64,154.5,51.45ZM101.68,37.69c.65-.31,1.3-.54,1.91-.9-.36-1.53-.91-3-1.36-4.49s-1-3.17-1.58-4.71A24,24,0,0,1,103,26.34c.24.66.47,1.33.7,2,.57-.24,1.15-.5,1.73-.79q-.33-.93-.63-1.86a3.57,3.57,0,0,1,1-.16,1.71,1.71,0,0,1,1.63,1.87c0,1.94-1.3,2.48-2.66,2.48a8.58,8.58,0,0,1-2.23-.36,15.36,15.36,0,0,1,.67,2.12,8.55,8.55,0,0,0,2.07.24,4.1,4.1,0,0,0,4.23-4.43,3.45,3.45,0,0,0-3.41-3.76,7.05,7.05,0,0,0-2,.26c-.45-1-.89-2.11-1.43-3.09-.65.22-1.3.5-2,.74a24.83,24.83,0,0,1,1.5,3c-.76.36-1.5.74-2.24,1.14-.38-1-.73-2-1.11-3,0-.12,0-.2-.17-.2s-1.83.64-2.08.71c.59,1.09,1.13,2.23,1.62,3.38-1,.52-2,1.08-2.93,1.62.32.72.68,1.4,1,2.1.87-.62,1.76-1.22,2.66-1.8A87.08,87.08,0,0,1,101.68,37.69ZM87.47,55.43c-.32-1.47-1-2.19-2.08-2.19a3.34,3.34,0,0,0-1,.15,12.11,12.11,0,0,0,1.09-2c1.6-.22,2.9-.43,3.86-.63l.19-2.25a27.41,27.41,0,0,1-3.26.76c.22-.7.38-1.23.46-1.57.2-.08.28-.19.28-.31a.23.23,0,0,0-.2-.24l-2.37-.53a16.54,16.54,0,0,1-.59,2.81,28.89,28.89,0,0,1-4,.21c.11.63.21,1.34.28,2.12,1.12-.06,2.15-.14,3.08-.26A14.76,14.76,0,0,1,78.8,57c.65.75,1.14,1.3,1.45,1.67.25-.24.65-.73,1.29-1.45a18.75,18.75,0,0,1,1.35-1.39,2.54,2.54,0,0,1,1.8-.77c.51,0,.79.47.82,1.39a12.34,12.34,0,0,0-2.65,1.75,4,4,0,0,0-1.44,2.94c0,2.19,1.72,3.27,5.14,3.27A14.42,14.42,0,0,0,91,63.8L91,61.41a15.56,15.56,0,0,1-5.09.82c-1.59,0-2.39-.44-2.39-1.25s.7-1.77,2.09-2.43v1.14c0,.35,0,.66,0,.94l2.07,0V57.51c1.15-.53,3.58-1.49,4.84-1.92a.47.47,0,0,0,.26.1q.21,0,.21-.24l-.8-2.29C90.46,53.94,88.87,54.69,87.47,55.43Zm77.07-21.94L166,31.65a16.48,16.48,0,0,1-5.4-5.69c-.54.53-1.06,1.08-1.62,1.59A23.37,23.37,0,0,0,164.54,33.49ZM89.26,31.91A15.39,15.39,0,0,1,86.53,24c0-.83,0-1.65.06-2.48a.42.42,0,0,0,.31-.37.34.34,0,0,0-.33-.31l-2.43-.27A36.76,36.76,0,0,1,83.86,27a13.08,13.08,0,0,1-4.32,8,9.57,9.57,0,0,1-2.1,1.2L79,38a9.93,9.93,0,0,0,1.79-1.16,13.44,13.44,0,0,0,3.8-5,23.56,23.56,0,0,0,.94-2.68A17.64,17.64,0,0,0,92,38.09l1.81-2A15.06,15.06,0,0,1,89.26,31.91Zm75.63-9v-2H150.51v2h6.68a18.91,18.91,0,0,1-7.68,8.87l1.5,1.4a18.64,18.64,0,0,0,5.64-5.29V38.23h2.11V24.87c.37-.63.7-1.28,1-1.94ZM135,53.53a49.7,49.7,0,0,1,5.19-4.9c-.33-.65-.69-1.31-1.06-1.94a5.51,5.51,0,0,1-1.38.52,22.42,22.42,0,0,1-5.55.17c.07.71.09,1.43.1,2.15a28.36,28.36,0,0,0,3.68-.19c-.83,1.06-3.09,3.84-4.12,4.36a16,16,0,0,1-3.23.84c.17.76.36,1.52.49,2.29a37.32,37.32,0,0,1,6.09-1.57,7,7,0,0,0-1.31,5.28c.41,3.8,3.95,4.15,6.41,4.09h.37c.17-.76.38-1.52.56-2.3-.42,0-.84.09-1.25.1-1.26,0-3.67-.19-4-2.17a4.77,4.77,0,0,1,1.46-4.42c1.38-1,3.81-.9,5.35-.77,0-.82,0-1.64,0-2.46C140.15,52.84,137.55,53.14,135,53.53Z"/></svg>