<svg id="sdg_icon_04_ja_2" xmlns="http://www.w3.org/2000/svg" width="238" height="238" viewBox="0 0 238 238"><defs><style>.cls-1{fill:#c60f28;}.cls-2{fill:#fff;}</style></defs><rect class="cls-1" width="238" height="238"/><path class="cls-2" d="M39.7,20.7H30L18.19,48.49v6.84H31.86V66.08H39.7V55.33h4.54V48.77H39.7ZM31.86,48.77H25l6.9-19.27ZM158,185.16l-47.64,15.4h-4.85L58,187.31V102.7l-4.6,3.63v84.2l51.82,14.35h5.27l47.81-15.18,4.22-1.24V106.33L158,102.7Zm-4.61-82.27-43.16,24.93V196l43.16-13Zm23.51,78.68h0l5.07,17.73L187,181.57V110.31H176.86ZM62.59,183l42.88,12.94V127.65L62.59,102.89Zm119.35-87.2a5.07,5.07,0,0,0-5.07,5.07v5.47H187v-5.47A5.07,5.07,0,0,0,181.94,95.79Zm-95.85-39a1.93,1.93,0,0,1,.47-.08c.65,0,.63.69.63,1.25v1.91c0,1.93-.17,4.41,2.15,4.41a6.51,6.51,0,0,0,5.35-3.26c-.26-1-.53-1.91-.81-2.88a12.29,12.29,0,0,1-1.78,2.65,3.73,3.73,0,0,1-2.2,1.29c-.6,0-.67-.72-.67-1.25,0-1,0-2.07,0-3.11,0-1.76-.53-3.06-2.22-3.06a5.06,5.06,0,0,0-2.32.76c.11-.18.21-.36.31-.56,1.07-2.09,2.12-4.24,3.29-6.28a.27.27,0,0,0,.29-.25.21.21,0,0,0-.12-.2A20.77,20.77,0,0,0,86.28,47c-.56,1.19-1,2.42-1.57,3.63-.95,2.17-1.86,4.36-2.78,6.54-.82,1.95-1.62,3.88-2.34,5.86.68.39,1.36.77,2.06,1.15C82.47,61.66,83.47,57.59,86.09,56.83Zm68-18.22h2V35.26h6.69c0,1.57-.72,1.79-1.89,2l1.26,1.51c1.66-.16,2.68-1.07,2.68-3.11v-7H154.11Zm1.95-8.38h6.73l0,.92h-6.71Zm0,2.43h6.73v1h-6.73ZM99.24,61.22a41.83,41.83,0,0,0,3.81-9.58c.86-.16,1.7-.37,2.55-.61,0-.73,0-1.47,0-2.19a17.68,17.68,0,0,1-2.09.7c.28-.94.49-1.9.69-2.84-.8-.18-1.6-.28-2.43-.4a21.75,21.75,0,0,1-.47,3.52,15.19,15.19,0,0,1-2.43.17,7.63,7.63,0,0,1-1,0c.09.73.19,1.45.28,2.16a19,19,0,0,0,2.61-.22,33.28,33.28,0,0,1-3.5,8.23C97.94,60.5,98.59,60.89,99.24,61.22Zm1.32-36.65v4.19H110V24.57ZM108,27.34h-5.53V26.07H108ZM106.56,51.4a10.77,10.77,0,0,1,4.25,2.35l1.12-2a10.81,10.81,0,0,0-4.36-2.35ZM64.61,24.82h1.18v2.27h1.85l0-2.21h2.16a2.88,2.88,0,0,1-1.37,2.05c.33.22.66.47,1,.67H63.68v8h1.89a8.45,8.45,0,0,1-4.22,1.66l1.12,1.67a19.13,19.13,0,0,0,5.1-2,.78.78,0,0,0,.21,0,.22.22,0,0,0,.24-.2c0-.16-.91-1-1.06-1.21h4.6c-.37.39-.81.67-1.2,1.05A22.53,22.53,0,0,0,75.9,39l1.3-1.92a9.4,9.4,0,0,1-4.29-1.47H75v-8H70A4.39,4.39,0,0,0,71.61,25H73v2.13h2v-2h2.26v-1.7H71.69c0-.3,0-.59,0-.9,1.38-.06,2.76-.2,4.14-.36a.93.93,0,0,0,.46.12c.08,0,.31,0,.31-.18s-.12-.23-.19-.31l-1.61-1.65a12.34,12.34,0,0,1-3.44.9l-1.61-.13c0,.81.06,1.62.07,2.43H64.65c0-.29,0-.55,0-.84a38.84,38.84,0,0,0,3.86-.51.68.68,0,0,0,.35.13c.1,0,.28-.06.28-.23l-1.41-1.72a15.35,15.35,0,0,1-3.47.92l-1.6-.12c0,.76.07,1.51.07,2.27,0,2,0,3.14-1.54,4.37l1.48,1A5.71,5.71,0,0,0,64.61,24.82Zm8.3,9.27H65.52v-.82h7.39Zm0-2.12H65.52v-.8h7.39Zm0-2.92v.83H65.52v-.83Zm69.64,1.63a8.14,8.14,0,0,0,.71-1.12,20,20,0,0,0,1.36,4.06,8.92,8.92,0,0,1-4.42,3.8L141.46,39a13.33,13.33,0,0,0,4.32-3.63,15.07,15.07,0,0,0,3,3.41l1.52-1.68A12.23,12.23,0,0,1,147,33.66a19.72,19.72,0,0,0,1.8-7.37h1V24.48h-4.39c.3-.95.56-1.92.8-2.88.13,0,.39-.21.39-.39a.41.41,0,0,0-.23-.35l-2.22-.69a23.15,23.15,0,0,1-2.76,9.21Zm2.17-4.39h2a20.85,20.85,0,0,1-1,5.29,22.43,22.43,0,0,1-1.21-4.84ZM110.49,63.52c.48-.63.92-1.33,1.35-2a12.47,12.47,0,0,0-3.71-2.43c0-1.09-.07-2.15,0-3.23a2.45,2.45,0,0,1,.36-1.24.15.15,0,0,0,0-.08c0-.25-.5-.17-.61-.17H106.3a4.18,4.18,0,0,0-.27,1.39c0,1,0,1.92,0,2.88a8.63,8.63,0,0,0-1.43-.12,3,3,0,0,0-3.19,3.1,3.11,3.11,0,0,0,2.06,2.9,4.91,4.91,0,0,0,1.65.26c1.58,0,2.94-.57,3-2.67,0-.22,0-.45,0-.67A15.29,15.29,0,0,1,110.49,63.52Zm-4.33-1.65c0,.87-.51,1-1.15,1s-1.69-.43-1.65-1.37.86-1.17,1.53-1.17a2.93,2.93,0,0,1,1.25.23C106.16,61,106.18,61.44,106.16,61.87Zm75.75-23.39L182,36.1a15.51,15.51,0,0,1-5.09.81c-1.59,0-2.39-.43-2.39-1.24s.7-1.78,2.1-2.43v1.14c0,.35,0,.66,0,.94l2.06,0V32.19c1.15-.52,3.58-1.49,4.84-1.91a.5.5,0,0,0,.26.1c.14,0,.21-.08.21-.25l-.8-2.28c-1.73.77-3.32,1.53-4.72,2.26-.31-1.46-1-2.18-2.08-2.18a3.61,3.61,0,0,0-1,.14,12.8,12.8,0,0,0,1.09-2c1.61-.22,2.9-.43,3.86-.63l.19-2.25a26.65,26.65,0,0,1-3.26.75c.22-.69.38-1.22.47-1.57.19-.08.28-.18.28-.3a.24.24,0,0,0-.21-.24l-2.36-.54a16.28,16.28,0,0,1-.6,2.82,28.89,28.89,0,0,1-4,.21c.11.63.22,1.34.28,2.12,1.12-.06,2.15-.14,3.08-.27a14.79,14.79,0,0,1-4.41,5.54l1.46,1.67c.24-.25.64-.73,1.29-1.45a15.41,15.41,0,0,1,1.35-1.39,2.52,2.52,0,0,1,1.79-.77c.51,0,.79.47.82,1.38a12.7,12.7,0,0,0-2.65,1.76,4.06,4.06,0,0,0-1.44,2.94c0,2.19,1.72,3.26,5.14,3.26A14.38,14.38,0,0,0,181.91,38.48ZM75.35,53.55c-.67-.53-1.36-1-2.06-1.48a19.42,19.42,0,0,1-.58,4.24,12.89,12.89,0,0,0-3.27-1.06c.34-1,.61-1.93.91-2.91.39-1.29.79-2.56,1.16-3.85-.3-.32-.6-.64-.86-1a24.06,24.06,0,0,1-5.89.77h-.19l.4,2.43,3.72-.65a32.66,32.66,0,0,1-1.28,5,7.36,7.36,0,0,0-2.13.19,4.42,4.42,0,0,0-3.23,4.3c0,1.76,1,3.18,2.5,3.18,1.78,0,2.72-1.72,3.48-3.41.31-.68.59-1.4.84-2.12a12.68,12.68,0,0,1,3.26,1.23,8.85,8.85,0,0,1-3.56,4.91l1.82,1.21c1.53-.93,2.91-3.28,3.6-5.17a26.41,26.41,0,0,1,2.37,1.76c.35-.78.68-1.59,1-2.37a20.63,20.63,0,0,0-2.66-1.55A23.52,23.52,0,0,0,75.35,53.55Zm-9.93,6.53a.84.84,0,0,1-.73.38c-.47,0-.66-.46-.66-1,0-1.78,1.59-2.39,2.81-2.5A11.12,11.12,0,0,1,65.42,60.08Zm33.1-21.85h2v-7.1h9.61v3.74c0,1.77-1.05,1.94-2.27,2.18l1.33,1.66c1.94-.31,3-1.31,3-3.7V29.54H98.52Zm19.72-1.18a1.84,1.84,0,0,0,1.36.59c1.39,0,2.84-2.34,3.36-3.7l-1.1-2.61c-.36.83-1.4,3.54-2.24,3.56-.44,0-.71-.93-.82-1.31a10,10,0,0,1-.43-2.72,20.46,20.46,0,0,1,0-2.6,21.35,21.35,0,0,1,.67-4.12.46.46,0,0,0,.36-.4.28.28,0,0,0-.13-.22,14.05,14.05,0,0,0-2.48-.91c-.11.69-.2,1.39-.29,2.11a33.71,33.71,0,0,0-.35,5.6C116.25,32.57,116.73,35.5,118.24,37.05Zm12.14-3.78a22,22,0,0,0-3.09-8.64c-.72.33-1.39.73-2.12,1.08a18.51,18.51,0,0,1,3,8.62C128.89,34,129.64,33.66,130.38,33.27ZM112.57,22h-6.31V20.76a.44.44,0,0,0,.3-.35.25.25,0,0,0-.28-.24L104.09,20v2H98v1.86h14.59ZM129.93,52c.08-.83.13-1.67.2-2.49a15,15,0,0,0-3.34-.17,22.52,22.52,0,0,0-4,.48c.09.75.14,1.67.22,2.42a19.48,19.48,0,0,1,2.83-.49A13.73,13.73,0,0,1,129.93,52Zm-11,12.18a19.61,19.61,0,0,1,1.57-5.62c-.44-.39-.88-.81-1.32-1.21-.34.94-.64,1.9-1,2.84,0-.75,0-1.48,0-2.23a39.85,39.85,0,0,1,1-9.19.29.29,0,0,0,.28-.27.26.26,0,0,0-.2-.27,4.23,4.23,0,0,0-.76-.19L117,47.64a49.69,49.69,0,0,0-.92,8.86,26.24,26.24,0,0,0,.92,7.87C117.67,64.29,118.31,64.2,118.94,64.14Zm14.35-32.8,1.2,1.38a13.54,13.54,0,0,0,3.09-2.34h1.61a5.26,5.26,0,0,1-.66.92l-1.07-.07c0,.66,0,1.33,0,2-1.17.22-2.36.43-3.55.58l.81,2.08c0,.1.08.18.19.18s.23-.22.24-.34c.79-.19,1.59-.35,2.38-.54,0,1.86-.31,2.15-1.82,2.58L137,39.24a2.92,2.92,0,0,0,2.47-3.19v-1.2c.87-.19,1.76-.33,2.63-.57l.16-1.88c-1,.22-1.94.39-2.9.55v-.51a18.85,18.85,0,0,0,1.89-2V29h-2.41c.28-.33.52-.66.78-1h2.24V26.4h-1.13a29.2,29.2,0,0,0,2.13-3.84c.12,0,.36,0,.36-.23a.37.37,0,0,0-.2-.32l-1.91-1.17c-.19.65-.42,1.27-.66,1.88h-1.82V20.93a.48.48,0,0,0,.26-.37.2.2,0,0,0-.21-.21l-2.08-.18V22.7h-2.23v1.88h2.25v1.75h-2.94V28h3.66A14.44,14.44,0,0,1,133.29,31.34Zm5.34-6.8h1.09a17,17,0,0,1-1.09,1.81Zm22-3.55c.12-.06.36-.23.36-.41s-.09-.29-.21-.29l-2.46-.16v2.1h-6.4V24h4.42A9.78,9.78,0,0,1,155,25.72a1,1,0,0,1-.68.29h-1.8l.42,2c3.62-.23,7.23-.33,10.83-.65a16.66,16.66,0,0,1,1.42,1.79l1.57-1.43c-1-1.3-2.15-2.47-3.21-3.72h3.54V22.23h-6.44ZM163,24c-.49.33-1,.62-1.5.9.29.31.59.64.9.92-1.76.1-3.54.23-5.31.29.79-.64,1.48-1.41,2.22-2.11ZM126.43,61.3c-1.65,0-2.66-1-2.67-3.17-.61.42-1.21.88-1.8,1.32.31,3.79,2.66,4.2,5.18,4.27a14,14,0,0,0,3.23-.17c0-.92,0-1.82,0-2.72A11.42,11.42,0,0,1,126.43,61.3ZM82.92,36.38a2.63,2.63,0,0,0,1.62-.66c2.74-2.08,3.67-7.69,4.14-11.22,2.29.53,3.65,2.92,3.65,5.55,0,3.88-2.55,5-5.3,5.77.53.58,1,1.21,1.56,1.8,3.46-.94,6-3.27,6-7.72,0-4.75-3.12-7.43-7-7.43-4.15,0-7.7,3.54-7.7,8.54a7.28,7.28,0,0,0,1.12,4.18A2.6,2.6,0,0,0,82.92,36.38Zm-.48-8.17a6.3,6.3,0,0,1,4-3.67c-.17,2.67-.87,6.85-2.51,8.82-.21.26-.51.65-.86.65-1,0-1.13-2.17-1.13-3A8,8,0,0,1,82.44,28.21ZM109,32.05h-7.31v4.51H109Zm-1.87,3h-3.6V33.5h3.6Z"/></svg>